<?xml version="1.0" encoding="UTF-8"?>
<svg id="Layer_1" data-name="Layer 1" xmlns="http://www.w3.org/2000/svg" viewBox="0 0 441.19 383.7">
  <g id="v1wvdB">
    <path d="M441.19,182.99c-1.53.07-1.25-1.9-2.48-3.02-3.45-3.14-12.48-7.98-17.02-7.98h-37.5v38c19.46,1.34,39.98-2.56,51.44,17.06,1.53,2.61,5.56,12.88,5.56,15.44v16.5c-16.11-17.19-42.83-7.56-63.96-9.95-6.76,35.6-26.32,69.21-54.57,91.93-77.05,61.95-191.34,36.59-282.97,42.03l6.3-8.7c15.48-25.58,11.08-62.9,11.58-91.97.19-11.06,1.15-22.23.62-33.33h-28.5c-1.76,0-9.17-3.67-11.17-4.83C3.5,235.45-.9,217.36.19,201c4.01,1.48,6.52,5.02,10.62,6.87,1.8.81,8.41,3.13,9.87,3.13h36.5v-39h-29.5c-.86,0-10.12-4.63-11.44-5.56C3.15,157.14-1.01,139.24.2,123.99c4.41,2.75,12.15,10,17.49,10h40.5c-2.4-44.75,8.8-94.78-18-133.99h158.49c60.1,3.68,120.49,25.41,154.92,77.08,11.51,17.27,18.44,36.74,24.55,56.45,21.33,1.97,40.61-4.98,55.45,14.55,2.27,2.98,7.59,13.09,7.59,16.41v18.5ZM312.19,133.99c-5.55-38.43-23.12-76.7-57.69-96.81-25.68-14.94-51.59-17.34-80.76-18.24-19.14-.59-38.4.52-57.54.04v115h196ZM316.19,171.99H116.19v39h200v-39ZM312.19,248.99H116.19v115c50.92-.84,109.55,5.6,151.47-29.03,25.82-21.33,39.11-53.4,44.53-85.97Z"/>
  </g>
</svg>