<?xml version="1.0" encoding="UTF-8"?>
<svg id="Layer_1" data-name="Layer 1" xmlns="http://www.w3.org/2000/svg" xmlns:xlink="http://www.w3.org/1999/xlink" viewBox="0 0 841.89 244.53">
  <defs>
    <style>
      .cls-1 {
        fill: #fff;
      }

      .cls-2 {
        fill: none;
      }

      .cls-3 {
        fill: #4d2d8b;
      }

      .cls-4 {
        fill: url(#linear-gradient);
      }
    </style>
    <linearGradient id="linear-gradient" x1="280.59" y1="-121.16" x2="561.3" y2="365.06" gradientUnits="userSpaceOnUse">
      <stop offset="0" stop-color="#442c81"/>
      <stop offset=".3" stop-color="#68499d"/>
      <stop offset="1" stop-color="#36256e"/>
    </linearGradient>
  </defs>
  <g>
    <rect class="cls-4" x="9.24" y="17.75" width="823.42" height="208.41" rx="41.93" ry="41.93"/>
    <path class="cls-3" d="M790.72,28.93c16.95,0,30.75,13.79,30.75,30.75v124.55c0,16.95-13.79,30.75-30.75,30.75H51.17c-16.95,0-30.75-13.79-30.75-30.75V59.68c0-16.95,13.79-30.75,30.75-30.75h739.56M790.72,17.75H51.17c-23.06,0-41.93,18.87-41.93,41.93v124.55c0,23.06,18.87,41.93,41.93,41.93h739.56c23.06,0,41.93-18.87,41.93-41.93V59.68c0-23.06-18.87-41.93-41.93-41.93h0Z"/>
  </g>
  <path class="cls-1" d="M141.75,45.79c1.21.43,7.42,2.97,7.94,3.64-1.69.5-3.88-.67-5.49-.96-27.69-5.04-57.25,3.37-77.92,22.54-24.11,22.36-32.7,58.6-20.44,89.22,3.61,9.02,8.85,17.37,15.28,24.65,3.13,3.54,6.74,6.59,10.48,9.45,3.4,2.6,8.64,5.25,11.09,8.55-1.1-.19-2.23-.27-3.33-.47-2.09-.37-4-1.4-5.83-2.46-10.38-6.02-19.64-13.68-27.05-23.16-9.48-12.12-15.87-26.72-17.91-42-3.3-24.7,6.66-51.05,24.04-68.54,7.95-8,17.45-14.57,27.93-18.81,8.55-3.45,18.56-5.77,27.79-6.29,10.64-.6,23.37,1.1,33.42,4.63Z"/>
  <path class="cls-1" d="M82.52,86.82c-.09.46-.47,1.46-.66,1.99-5.73,16.04-6.03,32.98.33,48.64,3.3,8.13,7.45,14.29,13.57,20.52,9.45,9.61,21.94,15.55,35.43,16.34,3.05.18,6.12.11,9.16-.21,5.09-.54,10.09-1.79,14.85-3.68,4.75-1.89,9.24-4.42,13.33-7.5,2.04-1.54,3.98-3.21,5.8-5s3.65-3.27,5.14-5.24l.33.33c.33.33-4.68,6.47-5.18,7.08-1.85,2.24-3.84,4.37-5.96,6.37-4.1,3.86-8.68,7.21-13.66,9.84-9.89,5.21-21.18,7.34-32.27,5.84-5.7-.77-11.76-2.29-16.9-4.85-5.59-2.79-10.76-6.45-15.26-10.78-2.97-2.86-5.66-6.02-8-9.42-6.75-9.82-10.54-21.64-10.78-33.55-.08-4.14.25-8.29.95-12.38.84-4.94,2.18-9.86,4.11-14.5.85-2.04,1.75-4.06,2.74-6.03.47-.94.96-1.87,1.51-2.77.28-.47,1.36-1.52,1.42-2.02-.04.32.06.7,0,.99Z"/>
  <path class="cls-1" d="M83.89,67.57c.06.4-1.01,1.17-1.24,1.4-2.3,2.23-4.45,4.61-6.45,7.12-3.99,5.01-7.33,10.54-9.93,16.39-5.64,12.7-7.75,26.89-5.92,40.67,1.7,12.77,7.5,25.13,15.9,34.85,7.04,8.15,15.97,14.69,25.94,18.78,13.09,5.37,27.74,6.46,41.51,3.32,3.36-.77,6.66-1.76,9.88-2.98,3.14-1.19,6.22-3.24,9.47-3.98-.14.03-.97,1.06-1.21,1.24-.68.51-1.41.96-2.12,1.42-1.38.89-2.79,1.73-4.22,2.52-2.87,1.59-5.84,2.98-8.9,4.17-6.11,2.38-12.53,3.96-19.05,4.68-13.02,1.44-26.9-.76-38.77-6.32-1.57-.73-3.1-1.53-4.61-2.38-10.16-5.74-18.66-14.26-24.67-24.24-7.07-11.75-10.65-25.68-10-39.38.4-8.49,2.32-16.91,5.65-24.73,5.12-12,13.52-22.49,24.15-30.04,1.04-.74,1.99-1.7,3.13-2.3.24-.12,1.16-.67,1.42-.31.02.03.03.05.03.08Z"/>
  <g>
    <path class="cls-2" d="M618.32,72.49c-3.19-3.06-7.27-4.59-12.25-4.59-4.72,0-8.54,1.53-11.47,4.59-2.93,3.06-5.04,7.05-6.37,11.97s-1.98,10.25-1.98,15.99c0,7.02.75,13.27,2.27,18.74,1.51,5.47,3.85,9.78,7.02,12.93,3.17,3.15,7.27,4.73,12.28,4.73,4.46,0,8.15-1.45,11.09-4.33,2.94-2.89,5.14-6.8,6.6-11.75,1.45-4.94,2.18-10.51,2.18-16.7,0-7.17-.76-13.46-2.29-18.87-1.52-5.42-3.89-9.65-7.08-12.71Z"/>
    <polygon class="cls-2" points="236.45 81.1 235.89 81.1 225.73 107.76 246.28 107.76 238.78 88.74 236.45 81.1"/>
    <path class="cls-1" d="M274.67,134.59c-.61-.61-1.06-1.27-1.36-1.98l-27.74-70.7h-7.98l-6.79,13.14-22.59,57.51c-.6,1.58-1.68,2.7-3.23,3.34l-5.38,2.1v3.68h25.3v-3.68l-9.62-2.83,7.88-20.67h25.77l8.24,20.89-9.79,2.6v3.68h34.53v-3.68l-5.38-2.1c-.64-.26-1.26-.69-1.87-1.3ZM225.73,107.76l10.16-26.66h.57l2.32,7.64,7.5,19.02h-20.55Z"/>
    <path class="cls-1" d="M334.97,66.83l7.47,2.6c.68.26,1.27.65,1.78,1.16.51.51.76,1.2.76,2.06v42.17c0,1.97-.29,4.08-.87,6.34-.59,2.26-1.62,4.41-3.09,6.45-1.47,2.04-3.47,3.71-6,5.01-2.53,1.3-5.75,1.95-9.68,1.95s-7.05-.64-9.48-1.93c-2.43-1.28-4.29-2.94-5.57-4.98s-2.16-4.19-2.63-6.45c-.47-2.27-.71-4.4-.71-6.4v-42.51c0-.83.26-1.53.76-2.1.51-.56,1.12-.96,1.84-1.19l7.42-2.21v-3.73h-36.63v3.73l7.42,2.21c.72.19,1.34.57,1.87,1.14.53.57.79,1.28.79,2.15v47.78c0,4.03,1.19,7.84,3.57,11.41s5.89,6.45,10.53,8.66c4.64,2.21,10.4,3.31,17.26,3.31,3.06,0,6.37-.48,9.94-1.41,3.57-.94,6.94-2.44,10.13-4.48,3.19-2.04,5.8-4.68,7.84-7.95s3.06-7.22,3.06-11.86v-45.12c0-.83.25-1.52.76-2.06.51-.55,1.1-.93,1.78-1.16l7.47-2.6v-3.73h-27.8v3.73Z"/>
    <path class="cls-1" d="M428.53,129.41c-1.98,1.41-4.19,2.53-6.63,3.34-2.43.81-5.25,1.22-8.46,1.22-8.38,0-14.76-2.89-19.16-8.66-4.4-5.78-6.6-14-6.6-24.68s1.89-18.23,5.69-23.66c3.79-5.43,8.8-8.15,15.03-8.15,2.71,0,5.27.36,7.67,1.08,2.39.72,4.65,1.68,6.76,2.89.68.34,1.23.7,1.67,1.1.44.4.79.9,1.05,1.5l4.02,10.07h4.42v-19.64c-1.92-.68-4.44-1.35-7.56-2.01-3.11-.66-6.31-1.22-9.6-1.67-3.28-.45-6.22-.68-8.83-.68-7.21,0-13.7,1.72-19.48,5.15-5.77,3.43-10.34,8.23-13.7,14.4-3.36,6.18-5.04,13.35-5.04,21.54s1.57,15.67,4.7,21.76,7.55,10.78,13.25,14.07c5.7,3.28,12.42,4.92,20.15,4.92,3.85,0,7.62-.66,11.3-1.95s7.05-2.89,10.13-4.76c3.07-1.87,5.63-3.67,7.67-5.41v-6.51h-2.72c-1.85,1.74-3.77,3.31-5.74,4.72Z"/>
    <path class="cls-1" d="M443,84.38h4.42l4.36-12.45c.23-.6.51-1.09.85-1.47.34-.38.87-.57,1.58-.57h16.59v62.55c0,.83-.23,1.53-.68,2.1-.45.56-1.08.94-1.87,1.13l-8.49,2.38v3.63h38.72v-3.63l-8.49-2.38c-.68-.15-1.28-.51-1.81-1.08s-.79-1.28-.79-2.15v-62.55h16.81c.68,0,1.19.19,1.53.57s.61.87.79,1.47l4.36,12.45h4.53v-21.28h-72.4v21.28Z"/>
    <path class="cls-1" d="M522.89,66.83l7.53,2.21c.72.19,1.33.57,1.84,1.14.51.57.76,1.28.76,2.15v60.12c0,.83-.23,1.52-.7,2.06-.48.55-1.11.93-1.9,1.16l-7.53,2.32v3.68h36.74v-3.68l-7.47-2.32c-.76-.23-1.38-.61-1.87-1.13-.49-.53-.74-1.23-.74-2.1v-60.12c0-.83.25-1.54.76-2.12.51-.58,1.12-.97,1.84-1.16l7.47-2.21v-3.73h-36.74v3.73Z"/>
    <path class="cls-1" d="M628.74,66.92c-5.68-3.72-12.92-5.58-21.71-5.58-8.08,0-15,1.82-20.77,5.47-5.78,3.64-10.2,8.56-13.28,14.75-3.07,6.19-4.61,13.11-4.61,20.77,0,8.08,1.5,15.21,4.5,21.4,3,6.19,7.37,11.02,13.1,14.5,5.74,3.47,12.72,5.2,20.94,5.2,6.83,0,12.69-1.18,17.58-3.57,4.89-2.38,8.88-5.55,11.97-9.51,3.1-3.96,5.38-8.38,6.85-13.25s2.21-9.79,2.21-14.77c0-7.51-1.38-14.36-4.13-20.55-2.76-6.19-6.98-11.14-12.66-14.86ZM625.51,120.78c-1.45,4.95-3.65,8.86-6.6,11.75-2.94,2.88-6.64,4.33-11.09,4.33-5.02,0-9.11-1.58-12.28-4.73-3.17-3.15-5.51-7.46-7.02-12.93-1.51-5.47-2.27-11.72-2.27-18.74,0-5.74.66-11.07,1.98-15.99s3.44-8.92,6.37-11.97c2.93-3.06,6.75-4.59,11.47-4.59,4.98,0,9.06,1.53,12.25,4.59,3.19,3.06,5.55,7.29,7.08,12.71,1.53,5.42,2.29,11.71,2.29,18.87,0,6.19-.73,11.76-2.18,16.7Z"/>
    <path class="cls-1" d="M708.6,66.83l7.47,2.6c.83.3,1.46.7,1.9,1.19.43.49.65,1.17.65,2.04v47.04h-.11l-5.15-7.64-34.08-48.96h-25.53v3.73l7.98,2.44c.68.22,1.27.61,1.79,1.16.51.55.76,1.26.76,2.12v59.56c0,.79-.25,1.46-.73,2.01-.49.55-1.1.95-1.81,1.22l-7.47,2.66v3.68h28.25v-3.68l-7.47-2.66c-.79-.3-1.41-.71-1.87-1.22s-.68-1.18-.68-2.01v-51.8h.17l5.72,8.49,37.25,53.44h9.57l1.7-13.47v-56.1c0-.83.25-1.51.74-2.04.49-.53,1.11-.93,1.87-1.19l7.47-2.6v-3.73h-28.36v3.73Z"/>
    <path class="cls-1" d="M803.29,108.92c-1.46-2.74-3.33-5.03-5.63-6.88-2.3-1.85-4.74-3.28-7.31-4.3-3.17-1.28-6.09-2.29-8.77-3.03-2.68-.73-5.42-1.57-8.21-2.52-3.85-1.36-6.53-3.08-8.04-5.18-1.51-2.09-2.27-4.59-2.27-7.5,0-2.72,1.12-5.17,3.37-7.36s5.33-3.29,9.25-3.29c1.24,0,2.8.15,4.64.45,1.85.31,3.67.75,5.47,1.33,1.79.58,3.25,1.27,4.38,2.06.41.31.87.7,1.36,1.19s.85,1.02,1.08,1.58l4.3,10.42h4.42v-20.89c-2.15-.68-4.57-1.29-7.25-1.84-2.68-.55-5.52-.99-8.52-1.33-3-.34-6.04-.51-9.14-.51-5.25,0-10.04,1.03-14.38,3.08-4.34,2.06-7.8,4.85-10.38,8.38-2.59,3.53-3.88,7.5-3.88,11.91,0,4.65,1.25,8.82,3.76,12.51,2.51,3.7,6.07,6.49,10.67,8.38,2.83,1.1,5.68,2,8.55,2.72s5.78,1.64,8.72,2.77c3.36,1.36,5.87,2.95,7.56,4.78,1.68,1.83,2.52,4.24,2.52,7.22,0,3.55-1.29,6.58-3.88,9.09-2.58,2.51-6.05,3.77-10.38,3.77-1.47,0-3.31-.23-5.52-.71-2.21-.47-4.44-1.15-6.71-2.04s-4.25-1.88-5.95-2.97c-.38-.27-.85-.69-1.41-1.28-.57-.58-.94-1.12-1.13-1.61l-4.82-11.21h-4.41l1.18,22.42c2.72.83,5.54,1.62,8.46,2.38,2.93.75,5.89,1.37,8.89,1.84,3,.48,5.99.71,8.98.71,7.66,0,13.88-1.22,18.68-3.65s8.32-5.56,10.56-9.37c2.24-3.81,3.37-7.75,3.37-11.83,0-3.73-.73-6.97-2.18-9.71Z"/>
  </g>
  <g>
    <path class="cls-1" d="M95.17,87.19h11.53v20.81h21.46v-20.81h11.53v53.35h-11.53v-23.08h-21.46v23.08h-11.53v-53.35Z"/>
    <path class="cls-1" d="M171.39,110.71c4.34,1.16,7.61,3.06,9.81,5.68,2.19,2.62,3.29,5.75,3.29,9.37,0,4.77-1.71,8.62-5.12,11.56-3.42,2.94-8.19,4.41-14.33,4.41-5.45,0-9.67-1.28-12.66-3.83-2.99-2.56-4.49-5.81-4.49-9.78,0-2.41.61-4.3,1.83-5.66,1.22-1.36,2.79-2.05,4.7-2.05,1.73,0,3.14.55,4.24,1.63,1.1,1.09,1.65,2.44,1.65,4.05,0,2.19-1.13,3.94-3.4,5.24-.96.56-1.54.96-1.74,1.21s-.3.58-.3.97c0,.96.62,1.83,1.87,2.62,1.82,1.16,3.89,1.75,6.19,1.75,2.96,0,5.3-1,7-3.02,1.71-2.01,2.56-5.13,2.56-9.36s-.79-7.28-2.36-9.29c-1.57-2.01-3.58-3.02-6.01-3.02-.58,0-1.35.09-2.3.28-.93.16-1.63.24-2.1.24-.74,0-1.32-.21-1.75-.62s-.63-.98-.63-1.73c0-.82.22-1.44.67-1.85.45-.41,1.14-.62,2.06-.62.37,0,.9.04,1.59.12.85.1,1.53.16,2.06.16,2.38,0,4.25-.82,5.6-2.46,1.32-1.61,1.98-4.31,1.98-8.1s-.74-6.52-2.22-8.21-3.57-2.54-6.27-2.54c-1.85,0-3.26.31-4.23.92-.97.61-1.45,1.26-1.45,1.94,0,.34.07.62.2.81.13.2.52.55,1.15,1.05,1.27,1,2.11,1.87,2.52,2.6.41.73.62,1.58.62,2.56,0,1.58-.54,2.9-1.61,3.95-1.07,1.04-2.42,1.57-4.03,1.57-1.69,0-3.11-.64-4.27-1.93-1.15-1.28-1.73-2.94-1.73-4.98,0-2.91,1.07-5.53,3.22-7.86,2.75-3.04,6.77-4.56,12.06-4.56,3.55,0,6.61.61,9.19,1.85,2.58,1.23,4.54,2.89,5.87,5,1.33,2.1,2,4.41,2,6.92,0,2.72-.84,5.17-2.52,7.34-1.68,2.17-4.49,4.06-8.44,5.67Z"/>
  </g>
  <path class="cls-1" d="M555.04,175.51c3.44.92,6.03,2.42,7.78,4.5,1.74,2.08,2.61,4.56,2.61,7.43,0,3.78-1.35,6.83-4.06,9.16-2.71,2.33-6.49,3.49-11.36,3.49-4.32,0-7.67-1.01-10.04-3.03-2.37-2.03-3.56-4.61-3.56-7.76,0-1.91.48-3.41,1.45-4.49.97-1.08,2.21-1.62,3.73-1.62,1.37,0,2.49.43,3.36,1.29.87.86,1.31,1.93,1.31,3.21,0,1.74-.9,3.13-2.69,4.15-.76.44-1.22.76-1.38.96s-.24.46-.24.77c0,.76.49,1.45,1.48,2.08,1.45.92,3.08,1.39,4.91,1.39,2.35,0,4.2-.8,5.55-2.39,1.35-1.59,2.03-4.07,2.03-7.42s-.62-5.77-1.87-7.36c-1.25-1.59-2.84-2.39-4.77-2.39-.46,0-1.07.07-1.82.22-.74.13-1.29.19-1.67.19-.59,0-1.05-.16-1.39-.49s-.5-.78-.5-1.37c0-.65.18-1.14.53-1.46.35-.32.9-.49,1.64-.49.29,0,.71.03,1.26.1.67.08,1.22.13,1.64.13,1.89,0,3.37-.65,4.44-1.95,1.05-1.28,1.57-3.42,1.57-6.42s-.59-5.17-1.76-6.51-2.83-2.02-4.97-2.02c-1.47,0-2.59.24-3.35.73-.77.48-1.15,1-1.15,1.54,0,.27.05.49.16.65.1.16.41.43.91.84,1.01.8,1.67,1.48,2,2.06.33.58.49,1.25.49,2.03,0,1.26-.42,2.3-1.27,3.13-.85.83-1.92,1.24-3.19,1.24-1.34,0-2.47-.51-3.38-1.53-.91-1.02-1.37-2.33-1.37-3.95,0-2.31.85-4.39,2.55-6.23,2.18-2.41,5.37-3.62,9.57-3.62,2.81,0,5.24.48,7.29,1.46,2.05.97,3.6,2.29,4.66,3.96,1.06,1.67,1.59,3.49,1.59,5.49,0,2.16-.67,4.1-2,5.82-1.33,1.72-3.56,3.22-6.69,4.5Z"/>
  <g>
    <path class="cls-2" d="M422.7,174.59c-.7,0-1.47.17-2.31.52s-1.55.97-2.13,1.87c-.58.9-.87,1.92-.87,3.07,0,.76.18,1.59.55,2.47.37.88,1.05,1.62,2.05,2.21s2.18.88,3.55.88h4.68v-5.04c0-1.77-.52-3.21-1.55-4.32-1.04-1.11-2.36-1.66-3.97-1.66Z"/>
    <path class="cls-1" d="M215.21,169.75c1.05,0,1.88-.3,2.47-.91.6-.61.89-1.46.89-2.57s-.3-1.92-.89-2.52c-.6-.61-1.42-.91-2.47-.91s-1.88.3-2.47.91c-.6.61-.89,1.45-.89,2.52s.3,1.97.89,2.57c.6.61,1.42.91,2.47.91Z"/>
    <path class="cls-1" d="M233.1,185.62h-24.78c-1.19,0-2.1-.39-2.74-1.17-.63-.78-.95-2.3-.95-4.55v-5.93h-6c-1.02,2.7-1.53,5.13-1.53,7.28,0,3.19.83,5.71,2.5,7.57,1.67,1.85,3.99,2.78,6.97,2.78h34.04v-21.89h-7.52v15.91Z"/>
    <path class="cls-1" d="M223.36,169.75c1.05,0,1.88-.3,2.47-.91.6-.61.89-1.46.89-2.57s-.3-1.92-.89-2.52c-.6-.61-1.42-.91-2.47-.91s-1.88.3-2.47.91c-.6.61-.89,1.45-.89,2.52s.3,1.97.89,2.57c.6.61,1.42.91,2.47.91Z"/>
    <rect class="cls-1" x="246.51" y="155.51" width="7.52" height="36.09"/>
    <path class="cls-1" d="M276.08,170.85c-.98-.83-2.17-1.42-3.55-1.77-1.39-.35-2.83-.52-4.34-.52s-3.11.17-4.81.52-3.31.81-4.81,1.4v4.84c1.4-.1,3.03-.23,4.89-.39,1.86-.16,3.17-.23,3.95-.23,2.84,0,4.26,1.54,4.26,4.63v6.29h-13.94v5.98h21.47v-12.79c0-1.87-.27-3.46-.82-4.76-.54-1.3-1.31-2.37-2.29-3.2Z"/>
    <rect class="cls-1" x="284.34" y="155.51" width="7.52" height="36.09"/>
    <path class="cls-1" d="M302.17,164.19c1.16,0,2.08-.34,2.76-1.01.68-.68,1.03-1.62,1.03-2.83s-.34-2.11-1.03-2.78c-.68-.68-1.6-1.01-2.76-1.01s-2.07.34-2.74,1.01c-.67.68-1,1.6-1,2.78s.33,2.16,1,2.83c.67.68,1.58,1.01,2.74,1.01Z"/>
    <path class="cls-1" d="M521.45,185.62h-33.46v-30.11h-7.52v30.11h-44.72v-5.72c0-1.66-.33-3.2-1-4.6-.67-1.4-1.6-2.61-2.79-3.61-1.19-1-2.6-1.79-4.24-2.34s-3.36-.83-5.18-.83-3.59.29-5.18.86c-1.6.57-2.96,1.37-4.08,2.39-1.12,1.02-1.99,2.24-2.6,3.64-.61,1.4-.92,2.92-.92,4.55,0,1.77.4,3.48,1.21,5.15-.74.35-1.72.52-2.95.52h-99.12s-.02,0-.03,0c0,0-.02,0-.03,0h-2.95v-16.17h-7.52v21.63c0,1.46-.14,2.64-.42,3.56-.28.92-.95,1.59-2,2-2.1.73-3.3,1.09-3.58,1.09v4.58h5c2.53,0,4.54-.88,6.05-2.65,1.51-1.77,2.33-4.47,2.47-8.11v.05h2.95s.02,0,.03,0c0,0,.02,0,.03,0h99.33c1.05,0,2.14-.25,3.26-.75,1.12-.5,2.1-1.14,2.95-1.9,2.56,1.77,5.66,2.65,9.31,2.65h105.22v-36.09h-7.52v30.11ZM428.23,185.62h-4.68c-1.37,0-2.55-.29-3.55-.88s-1.68-1.33-2.05-2.21c-.37-.88-.55-1.71-.55-2.47,0-1.14.29-2.17.87-3.07.58-.9,1.29-1.53,2.13-1.87s1.61-.52,2.31-.52c1.61,0,2.94.55,3.97,1.66,1.03,1.11,1.55,2.55,1.55,4.32v5.04Z"/>
    <path class="cls-1" d="M605.68,165.44c1.05,0,1.88-.3,2.47-.91.6-.61.89-1.46.89-2.57s-.3-1.92-.89-2.52c-.6-.61-1.42-.91-2.47-.91s-1.88.3-2.47.91c-.6.61-.89,1.45-.89,2.52s.3,1.97.89,2.57c.6.61,1.42.91,2.47.91Z"/>
    <path class="cls-1" d="M609.78,158.68c1.05,0,1.88-.3,2.47-.91.6-.61.89-1.46.89-2.57s-.3-1.92-.89-2.52c-.6-.61-1.42-.91-2.47-.91s-1.88.3-2.47.91c-.6.61-.89,1.45-.89,2.52s.3,1.97.89,2.57c.6.61,1.42.91,2.47.91Z"/>
    <path class="cls-1" d="M610.47,161.95c0,1.11.3,1.97.89,2.57.6.61,1.42.91,2.47.91s1.88-.3,2.47-.91c.6-.61.89-1.46.89-2.57s-.3-1.92-.89-2.52c-.6-.61-1.42-.91-2.47-.91s-1.88.3-2.47.91c-.6.61-.89,1.45-.89,2.52Z"/>
    <path class="cls-1" d="M786.55,157.64c-1.05,0-1.88.3-2.47.91-.6.61-.89,1.45-.89,2.52s.3,1.97.89,2.57c.6.61,1.42.91,2.47.91s1.88-.3,2.47-.91c.6-.61.89-1.46.89-2.57s-.3-1.92-.89-2.52c-.6-.61-1.42-.91-2.47-.91Z"/>
    <path class="cls-1" d="M782.39,185.62h-149.99c-.09,0-.18.03-.26.05-.09-.02-.17-.05-.26-.05h-2.89v-16.17h-7.52v16.17h-7.05v-14.04h-7.47v14.04h-7.68v-14.04h-7.52v17.37c0,1.46-.25,2.7-.76,3.74-.51,1.04-1.19,1.75-2.05,2.13s-1.69.57-2.5.57c-1.72,0-3.05-.57-4-1.72s-1.42-2.69-1.42-4.63v-8.63h-6c-.49,1.35-.88,2.79-1.16,4.32-.28,1.53-.42,2.89-.42,4.11,0,3.92,1.16,6.99,3.47,9.2,2.32,2.22,5.4,3.33,9.26,3.33,3.44,0,6.3-.86,8.6-2.57,2.3-1.72,3.73-4.12,4.29-7.2h32.83c.09,0,.18-.03.26-.05.09.02.17.05.26.05h157.51v-21.89h-7.52v15.91Z"/>
    <path class="cls-1" d="M778.39,164.55c1.05,0,1.88-.3,2.47-.91.6-.61.89-1.46.89-2.57s-.3-1.92-.89-2.52c-.6-.61-1.42-.91-2.47-.91s-1.88.3-2.47.91c-.6.61-.89,1.45-.89,2.52s.3,1.97.89,2.57c.6.61,1.42.91,2.47.91Z"/>
    <path class="cls-1" d="M801.54,200.64c-1.51,0-2.26-.49-2.26-1.46s.63-1.4,1.89-1.4h2.68v-2.86c-.91-.35-1.98-.55-3.21-.62-.7,0-1.45.12-2.24.36-.79.24-1.46.72-2.03,1.43-.56.71-.84,1.55-.84,2.52,0,.28.05.62.16,1.04.11.42.21.75.32.99h-1.74v3.54h10.79v-3.54h-3.53Z"/>
    <rect class="cls-1" x="795.81" y="155.51" width="7.52" height="36.09"/>
  </g>
</svg>